<svg xmlns="http://www.w3.org/2000/svg" xmlns:xlink="http://www.w3.org/1999/xlink" contentStyleType="text/css" data-diagram-type="CLASS" height="793px" preserveAspectRatio="none" style="width:1037px;height:793px;background:#FFFFFF;" version="1.1" viewBox="0 0 1037 793" width="1037px" zoomAndPan="magnify"><?plantuml 1.2026.6?><defs/><g><!--cluster Modules::AI--><g class="cluster" data-qualified-name="Modules..AI" data-source-line="2" id="ent0001"><path d="M8.5,6.602 L91.9597,6.602 A3.75,3.75 0 0 1 94.4597,9.102 L101.4597,31.6699 L831.5,31.6699 A2.5,2.5 0 0 1 834,34.1699 L834,775.702 A2.5,2.5 0 0 1 831.5,778.202 L8.5,778.202 A2.5,2.5 0 0 1 6,775.702 L6,9.102 A2.5,2.5 0 0 1 8.5,6.602" fill="#FAFAFA" style="stroke:#000000;stroke-width:1.5;"/><line style="stroke:#000000;stroke-width:1.5;" x1="6" x2="101.4597" y1="31.6699" y2="31.6699"/><text fill="#424242" font-family="sans-serif" font-size="14" font-weight="700" lengthAdjust="spacing" textLength="82.4597" x="10" y="23.5679">Modules::AI</text></g><!--cluster Modules::Task--><g class="cluster" data-qualified-name="Modules..Task" data-source-line="53" id="ent0015"><path d="M860.5,418.502 L960.9976,418.502 A3.75,3.75 0 0 1 963.4976,421.002 L970.4976,443.5699 L1019.5,443.5699 A2.5,2.5 0 0 1 1022,446.0699 L1022,534.412 A2.5,2.5 0 0 1 1019.5,536.912 L860.5,536.912 A2.5,2.5 0 0 1 858,534.412 L858,421.002 A2.5,2.5 0 0 1 860.5,418.502" fill="#F5F5F5" style="stroke:#000000;stroke-width:1.5;"/><line style="stroke:#000000;stroke-width:1.5;" x1="858" x2="970.4976" y1="443.5699" y2="443.5699"/><text fill="#757575" font-family="sans-serif" font-size="14" font-weight="700" lengthAdjust="spacing" textLength="99.4976" x="862" y="435.4679">Modules::Task</text><text fill="#757575" font-family="sans-serif" font-size="14" font-weight="700" lengthAdjust="spacing" textLength="75.9917" x="906.0042" y="460.5358">&#171;external&#187;</text></g><!--class AIController--><g class="entity" data-qualified-name="Modules..AI.AIController" data-source-line="3" id="ent0002"><rect fill="#E1F5FE" height="110.6158" rx="4" ry="4" style="stroke:#181818;stroke-width:0.5;" width="408.9126" x="76.54" y="44.602"/><ellipse cx="236.8114" cy="67.308" fill="#ADD1B2" rx="11" ry="11" style="stroke:#181818;stroke-width:1;"/><path d="M236.2802,74.2299 Q234.5302,74.2299 233.3896,73.4955 Q232.2646,72.7455 231.7021,71.4017 Q231.1552,70.0424 231.1552,68.2455 Q231.1552,66.2142 231.8114,64.7611 Q232.4677,63.308 233.7489,62.5267 Q235.0302,61.7455 236.9052,61.7455 Q237.7958,61.7455 238.4677,61.933 Q239.1396,62.1049 239.8271,62.4486 L239.0146,64.4642 Q238.3896,64.1517 237.8427,64.0267 Q237.3114,63.9017 236.8271,63.9017 Q235.6552,63.9017 234.9521,64.433 Q234.2489,64.9642 233.9521,65.9174 Q233.6552,66.8705 233.6552,68.1361 Q233.6552,70.1517 234.3739,71.1205 Q235.0927,72.0736 236.6864,72.0736 Q237.2802,72.0736 237.9052,71.9174 Q238.5302,71.7611 239.3583,71.3861 L239.3583,73.6049 Q238.6239,73.9174 237.8271,74.0736 Q237.0458,74.2299 236.2802,74.2299 Z " fill="#000000"/><text fill="#000000" font-family="sans-serif" font-size="12" font-style="italic" lengthAdjust="spacing" textLength="63.0604" x="265.7161" y="62.4301">&#171;controller&#187;</text><text fill="#01579B" font-family="sans-serif" font-size="14" lengthAdjust="spacing" textLength="79.8697" x="257.3114" y="80.912">AIController</text><line style="stroke:#181818;stroke-width:0.5;" x1="77.54" x2="484.4526" y1="90.014" y2="90.014"/><g data-visibility-modifier="PUBLIC_METHOD"><ellipse cx="87.54" cy="105.048" fill="#84BE84" rx="3" ry="3" style="stroke:#038048;stroke-width:1;"/></g><text fill="#01579B" font-family="sans-serif" font-size="14" lengthAdjust="spacing" textLength="45.1078" x="96.54" y="108.9799">Elysia()</text><g data-visibility-modifier="PUBLIC_METHOD"><ellipse cx="87.54" cy="124.1159" fill="#84BE84" rx="3" ry="3" style="stroke:#038048;stroke-width:1;"/></g><text fill="#01579B" font-family="sans-serif" font-size="14" lengthAdjust="spacing" textLength="283.527" x="96.54" y="128.0479">get('/suggestions', getSuggestionsHandler)</text><g data-visibility-modifier="PUBLIC_METHOD"><ellipse cx="87.54" cy="143.1838" fill="#84BE84" rx="3" ry="3" style="stroke:#038048;stroke-width:1;"/></g><text fill="#01579B" font-family="sans-serif" font-size="14" lengthAdjust="spacing" textLength="382.9126" x="96.54" y="147.1158">post('/suggestions/:id/feedback', submitFeedbackHandler)</text></g><!--class AIModel--><g class="entity" data-qualified-name="Modules..AI.AIModel" data-source-line="9" id="ent0003"><rect fill="#FFF9C4" height="72.4799" rx="4" ry="4" style="stroke:#181818;stroke-width:0.5;" width="202.8893" x="42.56" y="253.282"/><ellipse cx="112.2658" cy="275.988" fill="#ADD1B2" rx="11" ry="11" style="stroke:#181818;stroke-width:1;"/><path d="M111.7345,282.9099 Q109.9845,282.9099 108.8439,282.1755 Q107.7189,281.4255 107.1564,280.0817 Q106.6095,278.7224 106.6095,276.9255 Q106.6095,274.8942 107.2658,273.4411 Q107.922,271.988 109.2033,271.2067 Q110.4845,270.4255 112.3595,270.4255 Q113.2501,270.4255 113.922,270.613 Q114.5939,270.7849 115.2814,271.1286 L114.4689,273.1442 Q113.8439,272.8317 113.297,272.7067 Q112.7658,272.5817 112.2814,272.5817 Q111.1095,272.5817 110.4064,273.113 Q109.7033,273.6442 109.4064,274.5974 Q109.1095,275.5505 109.1095,276.8161 Q109.1095,278.8317 109.8283,279.8005 Q110.547,280.7536 112.1408,280.7536 Q112.7345,280.7536 113.3595,280.5974 Q113.9845,280.4411 114.8126,280.0661 L114.8126,282.2849 Q114.0783,282.5974 113.2814,282.7536 Q112.5001,282.9099 111.7345,282.9099 Z " fill="#000000"/><text fill="#000000" font-family="sans-serif" font-size="12" font-style="italic" lengthAdjust="spacing" textLength="52.3204" x="134.0945" y="271.1101">&#171;schema&#187;</text><text fill="#F57F17" font-family="sans-serif" font-size="14" lengthAdjust="spacing" textLength="54.9778" x="132.7658" y="289.592">AIModel</text><line style="stroke:#181818;stroke-width:0.5;" x1="43.56" x2="244.4493" y1="298.694" y2="298.694"/><g data-visibility-modifier="PUBLIC_FIELD"><ellipse cx="53.56" cy="313.728" fill="none" rx="3" ry="3" style="stroke:#038048;stroke-width:1;"/></g><text fill="#F57F17" font-family="sans-serif" font-size="14" lengthAdjust="spacing" textLength="176.8893" x="62.56" y="317.6599">FeedbackSchema : t.Object</text></g><!--class AIService--><g class="entity" data-qualified-name="Modules..AI.AIService" data-source-line="13" id="ent0004"><rect fill="#FFF3E0" height="110.6158" rx="4" ry="4" style="stroke:#181818;stroke-width:0.5;" width="404.4746" x="280.76" y="234.222"/><ellipse cx="448.5494" cy="256.928" fill="#ADD1B2" rx="11" ry="11" style="stroke:#181818;stroke-width:1;"/><path d="M448.0182,263.8499 Q446.2682,263.8499 445.1276,263.1155 Q444.0026,262.3655 443.4401,261.0217 Q442.8932,259.6624 442.8932,257.8655 Q442.8932,255.8342 443.5494,254.3811 Q444.2057,252.928 445.4869,252.1467 Q446.7682,251.3655 448.6432,251.3655 Q449.5338,251.3655 450.2057,251.553 Q450.8776,251.7249 451.5651,252.0686 L450.7526,254.0842 Q450.1276,253.7717 449.5807,253.6467 Q449.0494,253.5217 448.5651,253.5217 Q447.3932,253.5217 446.6901,254.053 Q445.9869,254.5842 445.6901,255.5374 Q445.3932,256.4905 445.3932,257.7561 Q445.3932,259.7717 446.1119,260.7405 Q446.8307,261.6936 448.4244,261.6936 Q449.0182,261.6936 449.6432,261.5374 Q450.2682,261.3811 451.0963,261.0061 L451.0963,263.2249 Q450.3619,263.5374 449.5651,263.6936 Q448.7838,263.8499 448.0182,263.8499 Z " fill="#000000"/><text fill="#000000" font-family="sans-serif" font-size="12" font-style="italic" lengthAdjust="spacing" textLength="47.5203" x="475.4872" y="252.0501">&#171;service&#187;</text><text fill="#E65100" font-family="sans-serif" font-size="14" lengthAdjust="spacing" textLength="60.3958" x="469.0494" y="270.532">AIService</text><line style="stroke:#181818;stroke-width:0.5;" x1="281.76" x2="684.2346" y1="279.634" y2="279.634"/><g data-visibility-modifier="PUBLIC_METHOD"><ellipse cx="291.76" cy="294.668" fill="#84BE84" rx="3" ry="3" style="stroke:#038048;stroke-width:1;"/></g><text fill="#E65100" font-family="sans-serif" font-size="14" lengthAdjust="spacing" text-decoration="underline" textLength="276.737" x="300.76" y="298.5999">generateRecommendations(userId: UUID)</text><g data-visibility-modifier="PUBLIC_METHOD"><ellipse cx="291.76" cy="313.7359" fill="#84BE84" rx="3" ry="3" style="stroke:#038048;stroke-width:1;"/></g><text fill="#E65100" font-family="sans-serif" font-size="14" lengthAdjust="spacing" text-decoration="underline" textLength="305.2128" x="300.76" y="317.6679">predictTaskOverload(userId: UUID, date: Date)</text><g data-visibility-modifier="PUBLIC_METHOD"><ellipse cx="291.76" cy="332.8038" fill="#84BE84" rx="3" ry="3" style="stroke:#038048;stroke-width:1;"/></g><text fill="#E65100" font-family="sans-serif" font-size="14" lengthAdjust="spacing" text-decoration="underline" textLength="378.4746" x="300.76" y="336.7358">processFeedback(suggestionId: UUID, accepted: boolean)</text></g><!--class HabitAnalysis--><g class="entity" data-qualified-name="Modules..AI.HabitAnalysis" data-source-line="19" id="ent0005"><rect fill="#E8F5E9" height="110.6158" rx="4" ry="4" style="stroke:#181818;stroke-width:0.5;" width="265.4271" x="248.29" y="651.582"/><ellipse cx="332.3877" cy="674.288" fill="#ADD1B2" rx="11" ry="11" style="stroke:#181818;stroke-width:1;"/><path d="M331.8565,681.2099 Q330.1065,681.2099 328.9658,680.4755 Q327.8408,679.7255 327.2783,678.3817 Q326.7315,677.0224 326.7315,675.2255 Q326.7315,673.1942 327.3877,671.7411 Q328.044,670.288 329.3252,669.5067 Q330.6065,668.7255 332.4815,668.7255 Q333.3721,668.7255 334.044,668.913 Q334.7158,669.0849 335.4033,669.4286 L334.5908,671.4442 Q333.9658,671.1317 333.419,671.0067 Q332.8877,670.8817 332.4033,670.8817 Q331.2315,670.8817 330.5283,671.413 Q329.8252,671.9442 329.5283,672.8974 Q329.2315,673.8505 329.2315,675.1161 Q329.2315,677.1317 329.9502,678.1005 Q330.669,679.0536 332.2627,679.0536 Q332.8565,679.0536 333.4815,678.8974 Q334.1065,678.7411 334.9346,678.3661 L334.9346,680.5849 Q334.2002,680.8974 333.4033,681.0536 Q332.6221,681.2099 331.8565,681.2099 Z " fill="#000000"/><text fill="#000000" font-family="sans-serif" font-size="12" font-style="italic" lengthAdjust="spacing" textLength="52.5124" x="370.9974" y="669.4101">&#171;domain&#187;</text><text fill="#1B5E20" font-family="sans-serif" font-size="14" lengthAdjust="spacing" textLength="88.7317" x="352.8877" y="687.892">HabitAnalysis</text><line style="stroke:#181818;stroke-width:0.5;" x1="249.29" x2="512.7171" y1="696.994" y2="696.994"/><g data-visibility-modifier="PRIVATE_FIELD"><rect fill="none" height="6" style="stroke:#C82930;stroke-width:1;" width="6" x="256.29" y="709.028"/></g><text fill="#1B5E20" font-family="sans-serif" font-size="14" lengthAdjust="spacing" textLength="88.8577" x="268.29" y="715.9599">userId : UUID</text><g data-visibility-modifier="PUBLIC_FIELD"><ellipse cx="259.29" cy="731.0959" fill="none" rx="3" ry="3" style="stroke:#038048;stroke-width:1;"/></g><text fill="#1B5E20" font-family="sans-serif" font-size="14" lengthAdjust="spacing" textLength="228.2271" x="268.29" y="735.0279">frequentTimeSlots : List&lt;TimeSlot&gt;</text><g data-visibility-modifier="PUBLIC_FIELD"><ellipse cx="259.29" cy="750.1638" fill="none" rx="3" ry="3" style="stroke:#038048;stroke-width:1;"/></g><text fill="#1B5E20" font-family="sans-serif" font-size="14" lengthAdjust="spacing" textLength="239.4271" x="268.29" y="754.0958">categoryAffinity : Map&lt;String, Float&gt;</text></g><!--class TaskSuggestion--><g class="entity" data-qualified-name="Modules..AI.TaskSuggestion" data-source-line="25" id="ent0006"><rect fill="#E8F5E9" height="148.7516" rx="4" ry="4" style="stroke:#181818;stroke-width:0.5;" width="201.5593" x="159.22" y="423.832"/><ellipse cx="203.8659" cy="446.538" fill="#ADD1B2" rx="11" ry="11" style="stroke:#181818;stroke-width:1;"/><path d="M203.3346,453.4599 Q201.5846,453.4599 200.444,452.7255 Q199.319,451.9755 198.7565,450.6317 Q198.2096,449.2724 198.2096,447.4755 Q198.2096,445.4442 198.8659,443.9911 Q199.5221,442.538 200.8034,441.7567 Q202.0846,440.9755 203.9596,440.9755 Q204.8502,440.9755 205.5221,441.163 Q206.194,441.3349 206.8815,441.6786 L206.069,443.6942 Q205.444,443.3817 204.8971,443.2567 Q204.3659,443.1317 203.8815,443.1317 Q202.7096,443.1317 202.0065,443.663 Q201.3034,444.1942 201.0065,445.1474 Q200.7096,446.1005 200.7096,447.3661 Q200.7096,449.3817 201.4284,450.3505 Q202.1471,451.3036 203.7409,451.3036 Q204.3346,451.3036 204.9596,451.1474 Q205.5846,450.9911 206.4127,450.6161 L206.4127,452.8349 Q205.6784,453.1474 204.8815,453.3036 Q204.1002,453.4599 203.3346,453.4599 Z " fill="#000000"/><text fill="#000000" font-family="sans-serif" font-size="12" font-style="italic" lengthAdjust="spacing" textLength="52.5124" x="249.9935" y="441.6601">&#171;domain&#187;</text><text fill="#1B5E20" font-family="sans-serif" font-size="14" lengthAdjust="spacing" textLength="103.7676" x="224.3659" y="460.142">TaskSuggestion</text><line style="stroke:#181818;stroke-width:0.5;" x1="160.22" x2="359.7793" y1="469.244" y2="469.244"/><g data-visibility-modifier="PUBLIC_FIELD"><ellipse cx="170.22" cy="484.278" fill="none" rx="3" ry="3" style="stroke:#038048;stroke-width:1;"/></g><text fill="#1B5E20" font-family="sans-serif" font-size="14" lengthAdjust="spacing" textLength="58.6878" x="179.22" y="488.2099">id : UUID</text><g data-visibility-modifier="PUBLIC_FIELD"><ellipse cx="170.22" cy="503.3459" fill="none" rx="3" ry="3" style="stroke:#038048;stroke-width:1;"/></g><text fill="#1B5E20" font-family="sans-serif" font-size="14" lengthAdjust="spacing" textLength="147.1254" x="179.22" y="507.2779">suggestedTitle : String</text><g data-visibility-modifier="PUBLIC_FIELD"><ellipse cx="170.22" cy="522.4138" fill="none" rx="3" ry="3" style="stroke:#038048;stroke-width:1;"/></g><text fill="#1B5E20" font-family="sans-serif" font-size="14" lengthAdjust="spacing" textLength="175.5593" x="179.22" y="526.3458">suggestedTime : DateTime</text><g data-visibility-modifier="PUBLIC_FIELD"><ellipse cx="170.22" cy="541.4817" fill="none" rx="3" ry="3" style="stroke:#038048;stroke-width:1;"/></g><text fill="#1B5E20" font-family="sans-serif" font-size="14" lengthAdjust="spacing" textLength="128.0995" x="179.22" y="545.4137">explanation : String</text><g data-visibility-modifier="PUBLIC_FIELD"><ellipse cx="170.22" cy="560.5496" fill="none" rx="3" ry="3" style="stroke:#038048;stroke-width:1;"/></g><text fill="#1B5E20" font-family="sans-serif" font-size="14" lengthAdjust="spacing" textLength="166.0114" x="179.22" y="564.4816">status : SuggestionStatus</text></g><!--class SuggestionStatus--><g class="entity" data-qualified-name="Modules..AI.SuggestionStatus" data-source-line="33" id="ent0007"><rect fill="#FEFEFE" height="97.2038" rx="4" ry="4" style="stroke:#181818;stroke-width:0.5;" width="146.9536" x="605.52" y="51.312"/><ellipse cx="620.52" cy="67.312" fill="#EB937F" rx="11" ry="11" style="stroke:#181818;stroke-width:1;"/><path d="M616.8794,73.812 L616.8794,61.6714 L624.5356,61.6714 L624.5356,63.7964 L619.2544,63.7964 L619.2544,66.4526 L624.27,66.4526 L624.27,68.5776 L619.2544,68.5776 L619.2544,71.687 L624.5356,71.687 L624.5356,73.812 L616.8794,73.812 Z " fill="#000000"/><text fill="#212121" font-family="sans-serif" font-size="14" lengthAdjust="spacing" textLength="114.9536" x="634.52" y="72.744">SuggestionStatus</text><line style="stroke:#181818;stroke-width:0.5;" x1="606.52" x2="751.4736" y1="83.312" y2="83.312"/><text fill="#212121" font-family="sans-serif" font-size="14" lengthAdjust="spacing" textLength="62.6917" x="611.52" y="102.2779">PENDING</text><text fill="#212121" font-family="sans-serif" font-size="14" lengthAdjust="spacing" textLength="68.6837" x="611.52" y="121.3458">ACCEPTED</text><text fill="#212121" font-family="sans-serif" font-size="14" lengthAdjust="spacing" textLength="62.7337" x="611.52" y="140.4138">REJECTED</text></g><!--class AIRepository--><g class="entity" data-qualified-name="Modules..AI.AIRepository" data-source-line="39" id="ent0008"><rect fill="#F3E5F5" height="110.6158" rx="4" ry="4" style="stroke:#181818;stroke-width:0.5;" width="422.4926" x="395.75" y="442.902"/><ellipse cx="560.6764" cy="465.608" fill="#ADD1B2" rx="11" ry="11" style="stroke:#181818;stroke-width:1;"/><path d="M560.1452,472.5299 Q558.3952,472.5299 557.2546,471.7955 Q556.1296,471.0455 555.5671,469.7017 Q555.0202,468.3424 555.0202,466.5455 Q555.0202,464.5142 555.6764,463.0611 Q556.3327,461.608 557.6139,460.8267 Q558.8952,460.0455 560.7702,460.0455 Q561.6608,460.0455 562.3327,460.233 Q563.0046,460.4049 563.6921,460.7486 L562.8796,462.7642 Q562.2546,462.4517 561.7077,462.3267 Q561.1764,462.2017 560.6921,462.2017 Q559.5202,462.2017 558.8171,462.733 Q558.1139,463.2642 557.8171,464.2174 Q557.5202,465.1705 557.5202,466.4361 Q557.5202,468.4517 558.2389,469.4205 Q558.9577,470.3736 560.5514,470.3736 Q561.1452,470.3736 561.7702,470.2174 Q562.3952,470.0611 563.2233,469.6861 L563.2233,471.9049 Q562.4889,472.2174 561.6921,472.3736 Q560.9108,472.5299 560.1452,472.5299 Z " fill="#000000"/><text fill="#000000" font-family="sans-serif" font-size="12" font-style="italic" lengthAdjust="spacing" textLength="84.9246" x="580.784" y="460.7301">&#171;infrastructure&#187;</text><text fill="#4A148C" font-family="sans-serif" font-size="14" lengthAdjust="spacing" textLength="84.1397" x="581.1764" y="479.212">AIRepository</text><line style="stroke:#181818;stroke-width:0.5;" x1="396.75" x2="817.2426" y1="488.314" y2="488.314"/><g data-visibility-modifier="PUBLIC_METHOD"><ellipse cx="406.75" cy="503.348" fill="#84BE84" rx="3" ry="3" style="stroke:#038048;stroke-width:1;"/></g><text fill="#4A148C" font-family="sans-serif" font-size="14" lengthAdjust="spacing" textLength="334.8787" x="415.75" y="507.2799">saveSuggestion(suggestion: TaskSuggestion) : void</text><g data-visibility-modifier="PUBLIC_METHOD"><ellipse cx="406.75" cy="522.4159" fill="#84BE84" rx="3" ry="3" style="stroke:#038048;stroke-width:1;"/></g><text fill="#4A148C" font-family="sans-serif" font-size="14" lengthAdjust="spacing" textLength="330.9028" x="415.75" y="526.3479">updateHabitAnalysis(analysis: HabitAnalysis) : void</text><g data-visibility-modifier="PUBLIC_METHOD"><ellipse cx="406.75" cy="541.4838" fill="#84BE84" rx="3" ry="3" style="stroke:#038048;stroke-width:1;"/></g><text fill="#4A148C" font-family="sans-serif" font-size="14" lengthAdjust="spacing" textLength="396.4926" x="415.75" y="545.4158">getSuggestionsHistory(userId: UUID) : List&lt;TaskSuggestion&gt;</text></g><!--class TaskRepository--><g class="entity" data-qualified-name="Modules..Task.TaskRepository" data-source-line="54" id="ent0016"><rect fill="#F5F5F5" height="45.412" rx="4" ry="4" style="stroke:#181818;stroke-width:0.5;" width="132.2676" x="873.87" y="475.502"/><ellipse cx="888.87" cy="498.208" fill="#ADD1B2" rx="11" ry="11" style="stroke:#181818;stroke-width:1;"/><path d="M888.3388,505.1299 Q886.5888,505.1299 885.4481,504.3955 Q884.3231,503.6455 883.7606,502.3017 Q883.2138,500.9424 883.2138,499.1455 Q883.2138,497.1142 883.87,495.6611 Q884.5263,494.208 885.8075,493.4267 Q887.0888,492.6455 888.9638,492.6455 Q889.8544,492.6455 890.5263,492.833 Q891.1981,493.0049 891.8856,493.3486 L891.0731,495.3642 Q890.4481,495.0517 889.9013,494.9267 Q889.37,494.8017 888.8856,494.8017 Q887.7138,494.8017 887.0106,495.333 Q886.3075,495.8642 886.0106,496.8174 Q885.7138,497.7705 885.7138,499.0361 Q885.7138,501.0517 886.4325,502.0205 Q887.1513,502.9736 888.745,502.9736 Q889.3388,502.9736 889.9638,502.8174 Q890.5888,502.6611 891.4169,502.2861 L891.4169,504.5049 Q890.6825,504.8174 889.8856,504.9736 Q889.1044,505.1299 888.3388,505.1299 Z " fill="#000000"/><text fill="#000000" font-family="sans-serif" font-size="12" font-style="italic" lengthAdjust="spacing" textLength="54.8404" x="925.5836" y="493.3301">&#171;external&#187;</text><text fill="#757575" font-family="sans-serif" font-size="14" lengthAdjust="spacing" textLength="100.2676" x="902.87" y="511.812">TaskRepository</text></g><!--link AIController to AIService--><g class="link" data-entity-1="ent0002" data-entity-2="ent0004" data-link-type="dependency" data-source-line="45" id="lnk9"><path codeLine="45" d="M339.97,155.682 C366.52,180.342 394.1263,205.9794 420.6463,230.6094" fill="none" id="AIController-to-AIService" style="stroke:#424242;stroke-width:1.5;"/><polygon fill="#424242" points="424.31,234.012,420.4374,224.9564,420.6463,230.6094,414.9933,230.8183,424.31,234.012" style="stroke:#424242;stroke-width:1.5;stroke-linejoin:miter;stroke-miterlimit:10;"/><polygon fill="#000000" points="396.7237,198.4776,392.096,190.1688,388.096,194.4757,396.7237,198.4776" style="stroke:#000000;stroke-width:1;stroke-linejoin:miter;stroke-miterlimit:10;"/><text fill="#000000" font-family="sans-serif" font-size="13" lengthAdjust="spacing" textLength="27.82" x="402.06" y="200.119">uses</text></g><!--link AIController to AIModel--><g class="link" data-entity-1="ent0002" data-entity-2="ent0003" data-link-type="dependency" data-source-line="46" id="lnk10"><path codeLine="46" d="M219.9,155.632 C210.99,165.032 202.36,175.062 195,185.222 C179.86,206.112 169.0239,227.5967 160.0139,248.3167" fill="none" id="AIController-to-AIModel" style="stroke:#424242;stroke-width:1.5;"/><polygon fill="#424242" points="158.02,252.902,165.2772,246.2436,160.0139,248.3167,157.9408,243.0534,158.02,252.902" style="stroke:#424242;stroke-width:1.5;stroke-linejoin:miter;stroke-miterlimit:10;"/><polygon fill="#000000" points="197.2865,199.2746,204.6637,193.2724,199.7268,190.0825,197.2865,199.2746" style="stroke:#000000;stroke-width:1;stroke-linejoin:miter;stroke-miterlimit:10;"/><text fill="#000000" font-family="sans-serif" font-size="13" lengthAdjust="spacing" textLength="83.8241" x="209" y="200.119">validates with</text></g><!--link AIService to AIRepository--><g class="link" data-entity-1="ent0004" data-entity-2="ent0008" data-link-type="dependency" data-source-line="47" id="lnk11"><path codeLine="47" d="M515.74,345.102 C533.82,375.242 553.6373,408.2746 571.7173,438.4046" fill="none" id="AIService-to-AIRepository" style="stroke:#424242;stroke-width:1.5;"/><polygon fill="#424242" points="574.29,442.692,573.089,432.9166,571.7173,438.4046,566.2293,437.0329,574.29,442.692" style="stroke:#424242;stroke-width:1.5;stroke-linejoin:miter;stroke-miterlimit:10;"/><polygon fill="#000000" points="548.8523,388.9725,546.7191,379.7043,541.6788,382.7283,548.8523,388.9725" style="stroke:#000000;stroke-width:1;stroke-linejoin:miter;stroke-miterlimit:10;"/><text fill="#000000" font-family="sans-serif" font-size="13" lengthAdjust="spacing" textLength="27.82" x="555.28" y="389.729">uses</text></g><!--link AIService to HabitAnalysis--><g class="link" data-entity-1="ent0004" data-entity-2="ent0005" data-link-type="dependency" data-source-line="48" id="lnk12"><path codeLine="48" d="M280.49,344.472 C181.5,371.812 81.99,401.162 75,410.502 C31.84,468.182 35.52,512.332 75,572.582 C113.5,631.362 179.3774,662.9709 243.1074,681.4309" fill="none" id="AIService-to-HabitAnalysis" style="stroke:#424242;stroke-width:1;stroke-dasharray:7,7;"/><polygon fill="#424242" points="247.91,682.822,240.3782,676.4759,243.1074,681.4309,238.1525,684.16,247.91,682.822" style="stroke:#424242;stroke-width:1;stroke-linejoin:miter;stroke-miterlimit:10;"/><polygon fill="#000000" points="79.4487,503.5345,83.367,494.8686,77.525,494.2205,79.4487,503.5345" style="stroke:#000000;stroke-width:1;stroke-linejoin:miter;stroke-miterlimit:10;"/><text fill="#000000" font-family="sans-serif" font-size="13" lengthAdjust="spacing" textLength="52.273" x="89" y="503.609">analyzes</text></g><!--link AIService to TaskSuggestion--><g class="link" data-entity-1="ent0004" data-entity-2="ent0006" data-link-type="dependency" data-source-line="49" id="lnk13"><path codeLine="49" d="M424.12,345.102 C398.18,369.142 370.977,394.353 343.057,420.233" fill="none" id="AIService-to-TaskSuggestion" style="stroke:#424242;stroke-width:1;stroke-dasharray:7,7;"/><polygon fill="#424242" points="339.39,423.632,348.7098,420.4473,343.057,420.233,343.2713,414.5802,339.39,423.632" style="stroke:#424242;stroke-width:1;stroke-linejoin:miter;stroke-miterlimit:10;"/><polygon fill="#000000" points="392.8028,388.0838,401.4346,384.0908,397.439,379.7798,392.8028,388.0838" style="stroke:#000000;stroke-width:1;stroke-linejoin:miter;stroke-miterlimit:10;"/><text fill="#000000" font-family="sans-serif" font-size="13" lengthAdjust="spacing" textLength="61.607" x="405.47" y="389.729">generates</text></g><!--link AIRepository to HabitAnalysis--><g class="link" data-entity-1="ent0008" data-entity-2="ent0005" data-link-type="dependency" data-source-line="50" id="lnk14"><path codeLine="50" d="M547.33,553.782 C514.37,583.922 477.2494,617.8673 444.3094,647.9973" fill="none" id="AIRepository-to-HabitAnalysis" style="stroke:#424242;stroke-width:1;stroke-dasharray:7,7;"/><polygon fill="#424242" points="440.62,651.372,449.9606,648.2491,444.3094,647.9973,444.5612,642.3461,440.62,651.372" style="stroke:#424242;stroke-width:1;stroke-linejoin:miter;stroke-miterlimit:10;"/><polygon fill="#000000" points="488.5303,615.8093,497.1884,611.8738,493.2216,607.5363,488.5303,615.8093" style="stroke:#000000;stroke-width:1;stroke-linejoin:miter;stroke-miterlimit:10;"/><text fill="#000000" font-family="sans-serif" font-size="13" lengthAdjust="spacing" textLength="56.329" x="501.22" y="617.479">manages</text></g><!--link AIService to TaskRepository--><g class="link" data-entity-1="ent0004" data-entity-2="ent0016" data-link-type="dependency" data-source-line="56" id="lnk17"><path codeLine="56" d="M683.23,345.262 C733.97,362.782 787.29,384.532 834,410.502 C866,428.302 894.2355,452.6177 914.5455,471.9177" fill="none" id="AIService-to-TaskRepository" style="stroke:#424242;stroke-width:1;stroke-dasharray:7,7;"/><polygon fill="#424242" points="918.17,475.362,914.4013,466.2627,914.5455,471.9177,908.8905,472.0619,918.17,475.362" style="stroke:#424242;stroke-width:1;stroke-linejoin:miter;stroke-miterlimit:10;"/><polygon fill="#000000" points="807.7356,387.0863,801.2134,380.1645,798.3905,385.3201,807.7356,387.0863" style="stroke:#000000;stroke-width:1;stroke-linejoin:miter;stroke-miterlimit:10;"/><text fill="#000000" font-family="sans-serif" font-size="13" lengthAdjust="spacing" textLength="79.7681" x="812.35" y="389.729">reads history</text></g><?plantuml-src RLJRRk8m47tlLtXvAQXStYCK2K6wPRMzgA4VOEmXk7NihEsmPQl--uvp8JSUGBPdpl4vC-Fy48h9d0EnxYnXdkMflCae-w09aD6Zvha46mIhxOXytH329BMMhBPhhPpHKe8XooMxRCAmo2BaZaJoR0KTJwfj0cvykx1vae1rGYjxE_LdSNFmG1L7YXgGQTj3B0B15mS0laTv2BVvFXNklZfemR_nrzAA9a2YJCkEaDAMn1eQ5m4I43T_thy3SmL7Yo46Sn8CF4Uvkf1yMKUTOD-5GmM6EdW5fjCK5AU5wd6Ec2qFoDlRTZFfWp83N32te_RZ-GH6QiexW2b16WZ81l-lW3K3QsiRuwPM3Pmo1fa3tE-rba3Lf6lkWUw5ModgksNH8DSf5UhYRqPADQJagmftCF0d1-Ls8eLOQcSn_5jOjwmFmYgHeUn4c_FgS11Ak3FcFT9i6JiZL38bz-YtoErqp1UZcOkXfZiYUdeguy1tmad0M7d1C9hweA-bNrPX-CmaLKMp1aWiTUxDDNBYugYH32fF1-5Aw4lqjDa-_IpMg_KwUjb5fUBNw5UqBZUTENi5d7hXi63eMgY3eTQPdBdSGCkzfITeRcnrFUYLReBAJrhm2fTdVfOw3H_JQX5q1w67x3rKx3HAx0xsPG8w2iBQOUUBCPk5hKSL-16p9BoULJvUL4EbyF8j-IlSiSgkAShKLlKwd7NMV1xsnZqWXVz_LrDxOnXS7dYTtBhl6dMAt4cHZ1KOVb4z_GZR39yE3AAg1ZTFe3CCJHQo3NLsh1kWt99ZsIKI_WS0?></g></svg>